<svg id="logo" xmlns="http://www.w3.org/2000/svg" width="154" height="130.311" viewBox="0 0 154 130.311">
  <path id="Path_84" data-name="Path 84" d="M25.226,108.115a26.111,26.111,0,0,1-11.61,2.567C6.138,110.681,0,106.663,0,98.625,0,85.9,13.058,81.545,24.89,81.545V82.1C17.523,83.44,12.611,87.35,12.611,96.948c0,7.367,3.907,12.5,12.5,10.6l.111.561ZM11.832,62.236c2.678,1.451,4.243,5.136,4.243,7.925,0,3.46-1.9,6.809-6.363,6.809a5.5,5.5,0,0,1-5.58-5.8,9.189,9.189,0,0,1,6.809-9.04l.894.111ZM43.867,101.08c0,4.8,1.115,7.367,6.252,6.141l.225.447c-2.009,1.676-5.8,2.678-9.487,2.678-6.92,0-9.265-3.013-9.265-11.943V74.625c0-8.929-2.567-14.734-13.73-14.066l-.111-.779A35.073,35.073,0,0,1,24,59.222c15.628,0,19.871,8.818,19.871,17.748v24.11Z" transform="translate(0.003 0)" fill="#231f20"/>
  <path id="Path_85" data-name="Path 85" d="M72,101.194c0,8.6,7.814,6.474,7.814,7.7v.336H51.234V108.9c0-1.115,8.483,1.229,8.483-8.929V69.831c0-9.712-8.483-6.7-8.483-8.15v-.225l20.539-2.231.225.222v41.747ZM95.212,65.588c0,3.8-2.792,6.252-6.474,6.252-3.907,0-8.486-2.792-7.592-9.712a17.789,17.789,0,0,0-3.907,2.567l-.447-.447A13.391,13.391,0,0,1,87.284,59C91.3,59,95.212,61.567,95.212,65.588Z" transform="translate(0.003 0)" fill="#231f20"/>
  <path id="Path_86" data-name="Path 86" d="M112.069,100.633c0,9.043,9.376,7.034,9.376,8.261v.336H90.525v-.336c0-1.115,9.265,1.115,9.265-8.818V38.014c0-9.6-9.154-6.7-9.154-8.147v-.225l21.208-2.234.222.225v73Zm27.349-1.451c7.145,10.716,13.73,8.261,13.73,9.823v.225H133.391l-16.632-25c2.567-2.57,5.022-5.247,7.478-7.814l15.181,22.77Zm-11.5-27.349c2.009-2.9,3.124-5.247,3.124-6.92,0-4.129-6.92-3.013-6.92-4.129v-.225h26.008v.225c0,1.451-10.27-.336-21.544,11.5l-.669-.447Z" transform="translate(0.003 0)" fill="#231f20"/>
  <path id="Path_87" data-name="Path 87" d="M81.514,29.836A35.623,35.623,0,0,0,79.4,33.493Z" transform="translate(0.003 0)" fill="none"/>
  <path id="Path_88" data-name="Path 88" d="M93.079,24.357c.387,2.44,7.095.355,10.51.082.133-.149.127-.079-.032.127,1.559-1.812,4.316-5.887,4.217-9.813-.035-1.334-.054-2.437-.117-3.34,0,.158-.016.326-.032.5-.333,3.726-7.611,8.97-14.55,12.443Z" transform="translate(0.003 0)" fill="#d19530"/>
  <path id="Path_89" data-name="Path 89" d="M103.143,25.026c-.149.146-.326.311-.542.488A2.876,2.876,0,0,0,103.143,25.026Z" transform="translate(0.003 0)" fill="#ef3a24"/>
  <path id="Path_90" data-name="Path 90" d="M107.237,9.256a1.651,1.651,0,0,0-.1-.212h-.025a1.773,1.773,0,0,1,.13.209Z" transform="translate(0.003 0)" fill="#ef3a24"/>
  <path id="Path_91" data-name="Path 91" d="M106.777,8.565c.162.222.285.38.339.444A2.136,2.136,0,0,0,106.777,8.565Z" transform="translate(0.003 0)" fill="#ef3a24"/>
  <path id="Path_92" data-name="Path 92" d="M103.143,25.026a4.872,4.872,0,0,0,.418-.463c.158-.2.165-.276.032-.127-3.413.276-10.124,2.357-10.51-.082a34.02,34.02,0,0,1-9.81,3.562c-.219.1-.415.177-.586.241-.425.567-.814,1.128-1.172,1.673L79.4,33.486a26.627,26.627,0,0,0-1.229,2.773l-.263.174-3.33,20.606S85.4,30.647,86.831,30.419c9.18-1.445,13.752-3.248,15.767-4.911.212-.174.393-.342.542-.488Z" transform="translate(0.003 0)" fill="#ddd4b6"/>
  <path id="Path_93" data-name="Path 93" d="M104.835,9.379a6.732,6.732,0,0,1-.029.859c-.4,4.512-16.525,15.409-21.534,17.678a34.02,34.02,0,0,0,9.81-3.562c6.939-3.473,14.218-8.717,14.55-12.443.016-.174.025-.342.032-.5a4.069,4.069,0,0,0-.421-2.155,2.314,2.314,0,0,0-.13-.209c-.19.025-1.2.152-2.272.333Z" transform="translate(0.003 0)" fill="#d5bb2e"/>
  <path id="Path_94" data-name="Path 94" d="M104.807,10.241a7.392,7.392,0,0,0,.029-.859,9.425,9.425,0,0,0-2.741.7,15.09,15.09,0,0,0-.665,3.01c-.586,3.641-3.9,2.988-11.952,8.451a28.664,28.664,0,0,0-6.79,6.616c.171-.063.368-.143.586-.241,5.013-2.272,21.135-13.169,21.534-17.678Z" transform="translate(0.003 0)" fill="#fffde9"/>
  <path id="Path_95" data-name="Path 95" d="M79.4,33.493a35.622,35.622,0,0,1,2.113-3.657c.358-.545.748-1.106,1.172-1.673a28.665,28.665,0,0,1,6.79-6.616c8.052-5.463,11.366-4.81,11.952-8.451a15.038,15.038,0,0,1,.665-3.01,9.425,9.425,0,0,1,2.741-.7c1.074-.177,2.082-.307,2.272-.333h.035l-.025-.035c-.051-.067-.174-.225-.339-.444-.684-.919-2.06-2.9-1.74-3.508.418-.8,2.75-1.987,2.75-1.987a.912.912,0,0,0,.082-.044c-1.553.3-3.8.773-5.086,1.036a.448.448,0,0,1-.333-.025h0c-.136-.086-.162-.263-.219-.418-.444-1.153-.757-2.43-1.315-3.546-.811-.092-3.993-.2-6.543,3.343L64.612,48.043l13.3-11.6.263-.174A26.625,26.625,0,0,1,79.4,33.5Z" transform="translate(0.003 0)" fill="#26211d"/>
  <path id="Path_96" data-name="Path 96" d="M101.337,5.1h0a.479.479,0,0,0,.333.029c1.283-.26,4.648-1.8,6.2-2.107l.694-.13c0-.067-.12-.048-.12-.111a5.649,5.649,0,0,0-.954-.013c-.722.025-2.269-.063-2.481-.754a3.106,3.106,0,0,0-2.8-1.9c-.437-.041-.875-.073-1.315-.114.01.022.019.048.032.073.555,1.119-.247,3.463.2,4.617.057.155.086.333.219.418Z" transform="translate(0.003 0)" fill="#cc4930"/>
  <path id="Path_97" data-name="Path 97" d="M3.283,121.876a2.289,2.289,0,0,0-.985.2,2.122,2.122,0,0,0-.713.539,2.3,2.3,0,0,0-.431.776,2.956,2.956,0,0,0-.143.922v3.5H.463v-6.23h.548v1.439a2.137,2.137,0,0,1,.9-1.185,2.784,2.784,0,0,1,1.5-.4h.124a.584.584,0,0,1,.124.013l-.38.425Z" transform="translate(0.003 0)" fill="#231f20"/>
  <path id="Path_98" data-name="Path 98" d="M7.77,127.342a2.97,2.97,0,0,1-1.927.618,3.168,3.168,0,0,1-1.3-.253,2.819,2.819,0,0,1-.957-.684,2.937,2.937,0,0,1-.6-1,3.556,3.556,0,0,1-.2-1.21,4.24,4.24,0,0,1,.2-1.3,3.054,3.054,0,0,1,.6-1.071,2.8,2.8,0,0,1,1-.732,3.362,3.362,0,0,1,1.4-.272,3.168,3.168,0,0,1,.979.146,2.825,2.825,0,0,1,.818.409,2.18,2.18,0,0,1,.589.659,2.382,2.382,0,0,1,.295.875l-5.292,1.787a3.065,3.065,0,0,0,.253.859,2.4,2.4,0,0,0,.5.7,2.223,2.223,0,0,0,.745.475,2.626,2.626,0,0,0,.985.174,2.689,2.689,0,0,0,.856-.133,2.265,2.265,0,0,0,.707-.38,1.966,1.966,0,0,0,.491-.593,2.064,2.064,0,0,0,.222-.779h.536a2.426,2.426,0,0,1-.881,1.7Zm-.444-5.083a2.3,2.3,0,0,0-1.34-.387,2.722,2.722,0,0,0-1.188.238,2.358,2.358,0,0,0-.818.631,2.8,2.8,0,0,0-.485.906,3.589,3.589,0,0,0-.165,1.084v.206l4.731-1.6a1.854,1.854,0,0,0-.738-1.077Z" transform="translate(0.003 0)" fill="#231f20"/>
  <path id="Path_99" data-name="Path 99" d="M14.557,126.17a1.435,1.435,0,0,1-.234.833,1.832,1.832,0,0,1-.6.551,2.722,2.722,0,0,1-.824.307,4.475,4.475,0,0,1-.916.1,3.4,3.4,0,0,1-2.05-.545,1.983,1.983,0,0,1-.745-1.717h.536a1.651,1.651,0,0,0,.6,1.41,2.707,2.707,0,0,0,1.673.453,3.552,3.552,0,0,0,.688-.073,2.246,2.246,0,0,0,.653-.231,1.425,1.425,0,0,0,.485-.412,1,1,0,0,0,.19-.618.975.975,0,0,0-.184-.612,1.38,1.38,0,0,0-.485-.387,3.025,3.025,0,0,0-.707-.241c-.269-.06-.548-.124-.837-.187-.3-.063-.6-.13-.881-.2a3.188,3.188,0,0,1-.757-.285,1.431,1.431,0,0,1-.529-.478,1.392,1.392,0,0,1-.2-.779,1.289,1.289,0,0,1,.146-.593,1.551,1.551,0,0,1,.444-.52,2.321,2.321,0,0,1,.748-.368,3.66,3.66,0,0,1,1.065-.139,4.316,4.316,0,0,1,1.027.114,2.327,2.327,0,0,1,.8.352,1.655,1.655,0,0,1,.523.618,1.994,1.994,0,0,1,.19.9h-.523a1.384,1.384,0,0,0-.561-1.229,2.51,2.51,0,0,0-1.439-.38,2.675,2.675,0,0,0-1.014.158,1.549,1.549,0,0,0-.561.364.967.967,0,0,0-.241.412,1.41,1.41,0,0,0-.054.292.9.9,0,0,0,.253.672,1.823,1.823,0,0,0,.634.393,4.827,4.827,0,0,0,.811.225c.288.054.548.108.783.165.253.063.5.133.757.206a2.705,2.705,0,0,1,.672.292,1.452,1.452,0,0,1,.475.466,1.324,1.324,0,0,1,.184.719Z" transform="translate(0.003 0)" fill="#231f20"/>
  <path id="Path_100" data-name="Path 100" d="M15.9,121.984v5.83h-.548v-5.83h-.707v-.4h.707v-1.6l.548-.558v2.155h.707v.4H15.9Z" transform="translate(0.003 0)" fill="#231f20"/>
  <path id="Path_101" data-name="Path 101" d="M22.358,127.814v-1.09a2.3,2.3,0,0,1-.954.913,3.077,3.077,0,0,1-1.439.32,3.221,3.221,0,0,1-1.3-.247,2.775,2.775,0,0,1-.96-.678,3,3,0,0,1-.6-1,3.517,3.517,0,0,1-.209-1.223,4.3,4.3,0,0,1,.2-1.29,2.977,2.977,0,0,1,.6-1.077,2.89,2.89,0,0,1,1-.738,3.361,3.361,0,0,1,1.4-.273,3.042,3.042,0,0,1,1.312.285,2.192,2.192,0,0,1,.947.827v-.966H22.9v6.23h-.548Zm0-4.275a1.213,1.213,0,0,0-.2-.659,1.893,1.893,0,0,0-.51-.532,2.665,2.665,0,0,0-1.489-.475,2.845,2.845,0,0,0-1.28.26,2.341,2.341,0,0,0-.843.681,2.709,2.709,0,0,0-.456.947,4.1,4.1,0,0,0-.136,1.046,3.316,3.316,0,0,0,.165,1.039,2.445,2.445,0,0,0,.491.868,2.329,2.329,0,0,0,.811.593,2.709,2.709,0,0,0,1.125.219,2.964,2.964,0,0,0,.875-.127,2.384,2.384,0,0,0,.745-.374,1.832,1.832,0,0,0,.516-.6,1.62,1.62,0,0,0,.19-.786v-2.1Z" transform="translate(0.003 0)" fill="#231f20"/>
  <path id="Path_102" data-name="Path 102" d="M28.917,127.814v-1.429a2.091,2.091,0,0,1-.9,1.179,2.831,2.831,0,0,1-1.515.393,2.43,2.43,0,0,1-1.743-.6,2.133,2.133,0,0,1-.634-1.626v-4.151h.548v4a1.973,1.973,0,0,0,.5,1.407,1.922,1.922,0,0,0,1.477.532,2.289,2.289,0,0,0,.985-.2,2.061,2.061,0,0,0,.707-.532,2.279,2.279,0,0,0,.425-.776,3.01,3.01,0,0,0,.143-.928v-3.5h.561v6.23h-.548Z" transform="translate(0.003 0)" fill="#231f20"/>
  <path id="Path_103" data-name="Path 103" d="M33.5,121.876a2.289,2.289,0,0,0-.985.2,2.122,2.122,0,0,0-.713.539,2.3,2.3,0,0,0-.431.776,2.956,2.956,0,0,0-.143.922v3.5h-.548v-6.23h.548v1.439a2.137,2.137,0,0,1,.9-1.185,2.784,2.784,0,0,1,1.5-.4h.124a.584.584,0,0,1,.124.013l-.38.425Z" transform="translate(0.003 0)" fill="#231f20"/>
  <path id="Path_104" data-name="Path 104" d="M38.48,127.814v-1.09a2.284,2.284,0,0,1-.954.913,3.077,3.077,0,0,1-1.439.32,3.221,3.221,0,0,1-1.3-.247,2.775,2.775,0,0,1-.96-.678,2.952,2.952,0,0,1-.6-1,3.517,3.517,0,0,1-.209-1.223,4.3,4.3,0,0,1,.2-1.29,2.977,2.977,0,0,1,.6-1.077,2.89,2.89,0,0,1,1-.738,3.361,3.361,0,0,1,1.4-.273,3.042,3.042,0,0,1,1.312.285,2.21,2.21,0,0,1,.947.827v-.966h.548v6.23h-.548Zm0-4.275a1.213,1.213,0,0,0-.2-.659,1.893,1.893,0,0,0-.51-.532,2.665,2.665,0,0,0-1.489-.475,2.845,2.845,0,0,0-1.28.26,2.341,2.341,0,0,0-.843.681,2.709,2.709,0,0,0-.456.947,4.1,4.1,0,0,0-.136,1.046,3.316,3.316,0,0,0,.165,1.039,2.445,2.445,0,0,0,.491.868,2.329,2.329,0,0,0,.811.593,2.709,2.709,0,0,0,1.125.219,2.964,2.964,0,0,0,.875-.127,2.384,2.384,0,0,0,.745-.374,1.832,1.832,0,0,0,.516-.6,1.62,1.62,0,0,0,.19-.786v-2.1Z" transform="translate(0.003 0)" fill="#231f20"/>
  <path id="Path_105" data-name="Path 105" d="M45.039,127.814v-4a1.963,1.963,0,0,0-.5-1.407,1.926,1.926,0,0,0-1.47-.532,2.289,2.289,0,0,0-.985.2,2.122,2.122,0,0,0-.713.539,2.3,2.3,0,0,0-.431.776,2.956,2.956,0,0,0-.143.922v3.5h-.548v-6.23h.548v1.439a2.137,2.137,0,0,1,.9-1.185,2.784,2.784,0,0,1,1.5-.4,2.451,2.451,0,0,1,1.749.6,2.115,2.115,0,0,1,.64,1.626v4.151h-.548Z" transform="translate(0.003 0)" fill="#231f20"/>
  <path id="Path_106" data-name="Path 106" d="M47.352,121.984v5.83H46.8v-5.83H46.1v-.4H46.8v-1.6l.548-.558v2.155h.707v.4h-.707Z" transform="translate(0.003 0)" fill="#231f20"/>
  <path id="Path_107" data-name="Path 107" d="M55.328,124.1a.385.385,0,0,1-.149.314.546.546,0,0,1-.345.12.539.539,0,0,1-.345-.12.38.38,0,0,1-.149-.314.389.389,0,0,1,.149-.314.545.545,0,0,1,.345-.12.539.539,0,0,1,.345.12A.38.38,0,0,1,55.328,124.1Z" transform="translate(0.003 0)" fill="#231f20"/>
  <path id="Path_108" data-name="Path 108" d="M68.319,124.817a3.517,3.517,0,0,1-.209,1.223,2.952,2.952,0,0,1-.6,1,2.771,2.771,0,0,1-.966.678,3.244,3.244,0,0,1-1.293.247,3.1,3.1,0,0,1-1.439-.32,2.284,2.284,0,0,1-.954-.913v1.09h-.548V119.11h.548v3.448a2.155,2.155,0,0,1,.947-.827,3.052,3.052,0,0,1,1.312-.285,3.362,3.362,0,0,1,1.4.272,2.953,2.953,0,0,1,1.008.732,3.018,3.018,0,0,1,.6,1.071,4.255,4.255,0,0,1,.2,1.3Zm-.548-.006a4.121,4.121,0,0,0-.136-1.046,2.709,2.709,0,0,0-.456-.947,2.308,2.308,0,0,0-.843-.681,2.846,2.846,0,0,0-1.28-.26,2.482,2.482,0,0,0-.783.127,2.624,2.624,0,0,0-.707.349,1.914,1.914,0,0,0-.51.526,1.177,1.177,0,0,0-.2.653v2.113a1.629,1.629,0,0,0,.19.786,1.833,1.833,0,0,0,.516.6,2.384,2.384,0,0,0,.745.374,2.964,2.964,0,0,0,.875.127,2.709,2.709,0,0,0,1.125-.219,2.329,2.329,0,0,0,.811-.593,2.523,2.523,0,0,0,.491-.868,3.32,3.32,0,0,0,.165-1.039Z" transform="translate(0.003 0)" fill="#231f20"/>
  <path id="Path_109" data-name="Path 109" d="M74.549,127.814v-1.09a2.3,2.3,0,0,1-.954.913,3.077,3.077,0,0,1-1.439.32,3.221,3.221,0,0,1-1.3-.247,2.775,2.775,0,0,1-.96-.678,2.952,2.952,0,0,1-.6-1,3.517,3.517,0,0,1-.209-1.223,4.3,4.3,0,0,1,.2-1.29,2.977,2.977,0,0,1,.6-1.077,2.89,2.89,0,0,1,1-.738,3.361,3.361,0,0,1,1.4-.273,3.042,3.042,0,0,1,1.312.285,2.192,2.192,0,0,1,.947.827v-.966h.548v6.23h-.548Zm0-4.275a1.213,1.213,0,0,0-.2-.659,1.893,1.893,0,0,0-.51-.532,2.665,2.665,0,0,0-1.489-.475,2.845,2.845,0,0,0-1.28.26,2.341,2.341,0,0,0-.843.681,2.709,2.709,0,0,0-.456.947,4.1,4.1,0,0,0-.136,1.046,3.316,3.316,0,0,0,.165,1.039,2.445,2.445,0,0,0,.491.868,2.329,2.329,0,0,0,.811.593,2.709,2.709,0,0,0,1.125.219,2.964,2.964,0,0,0,.875-.127,2.384,2.384,0,0,0,.745-.374,1.832,1.832,0,0,0,.516-.6,1.62,1.62,0,0,0,.19-.786v-2.1Z" transform="translate(0.003 0)" fill="#231f20"/>
  <path id="Path_110" data-name="Path 110" d="M79.137,121.876a2.289,2.289,0,0,0-.985.2,2.122,2.122,0,0,0-.713.539,2.3,2.3,0,0,0-.431.776,2.956,2.956,0,0,0-.143.922v3.5h-.548v-6.23h.548v1.439a2.147,2.147,0,0,1,.9-1.185,2.784,2.784,0,0,1,1.5-.4h.124a.584.584,0,0,1,.124.013l-.38.425Z" transform="translate(0.003 0)" fill="#231f20"/>
  <path id="Path_111" data-name="Path 111" d="M86.783,124.1a.385.385,0,0,1-.149.314.546.546,0,0,1-.345.12.539.539,0,0,1-.345-.12.38.38,0,0,1-.149-.314.389.389,0,0,1,.149-.314.545.545,0,0,1,.345-.12.539.539,0,0,1,.345.12A.38.38,0,0,1,86.783,124.1Z" transform="translate(0.003 0)" fill="#231f20"/>
  <path id="Path_112" data-name="Path 112" d="M98.542,127.342a2.964,2.964,0,0,1-1.927.618,3.168,3.168,0,0,1-1.3-.253,2.832,2.832,0,0,1-.96-.684,2.952,2.952,0,0,1-.6-1,3.484,3.484,0,0,1-.209-1.21,4.057,4.057,0,0,1,.2-1.3,3.118,3.118,0,0,1,.6-1.071,2.839,2.839,0,0,1,1-.732,3.372,3.372,0,0,1,1.4-.272,3.168,3.168,0,0,1,.979.146,2.7,2.7,0,0,1,.818.418,2.242,2.242,0,0,1,.884,1.543h-.536a1.841,1.841,0,0,0-.707-1.233,2.284,2.284,0,0,0-1.423-.437,2.753,2.753,0,0,0-1.207.241,2.327,2.327,0,0,0-.824.646,2.807,2.807,0,0,0-.478.935,3.914,3.914,0,0,0-.155,1.112,3.473,3.473,0,0,0,.155,1.027,2.418,2.418,0,0,0,.478.868,2.31,2.31,0,0,0,.792.6,2.527,2.527,0,0,0,1.1.225,2.689,2.689,0,0,0,.856-.133,2.265,2.265,0,0,0,.707-.38,1.92,1.92,0,0,0,.491-.593,2.064,2.064,0,0,0,.222-.779h.535a2.426,2.426,0,0,1-.881,1.7Z" transform="translate(0.003 0)" fill="#231f20"/>
  <path id="Path_113" data-name="Path 113" d="M106.413,124.706a3.72,3.72,0,0,1-.2,1.229,3.133,3.133,0,0,1-.6,1.039,2.785,2.785,0,0,1-.973.719,3.182,3.182,0,0,1-1.34.266,3.242,3.242,0,0,1-1.353-.266,2.824,2.824,0,0,1-.973-.719,3.118,3.118,0,0,1-.589-1.039,3.945,3.945,0,0,1,0-2.459,3.013,3.013,0,0,1,.589-1.039,2.912,2.912,0,0,1,.973-.726,3.173,3.173,0,0,1,1.353-.272,3.124,3.124,0,0,1,1.34.272,2.881,2.881,0,0,1,.973.726,3.189,3.189,0,0,1,.6,1.039A3.789,3.789,0,0,1,106.413,124.706Zm-.548-.006a3.423,3.423,0,0,0-.162-1.049,2.685,2.685,0,0,0-.485-.9,2.366,2.366,0,0,0-1.914-.875,2.481,2.481,0,0,0-1.125.241,2.418,2.418,0,0,0-.8.634,2.664,2.664,0,0,0-.475.9,3.631,3.631,0,0,0,0,2.1,2.724,2.724,0,0,0,.475.906,2.311,2.311,0,0,0,.8.634,2.8,2.8,0,0,0,2.243,0,2.335,2.335,0,0,0,.8-.634,2.867,2.867,0,0,0,.485-.906A3.443,3.443,0,0,0,105.865,124.7Z" transform="translate(0.003 0)" fill="#231f20"/>
  <path id="Path_114" data-name="Path 114" d="M109.2,119.389c-.1,0-.222-.006-.352-.006a2.213,2.213,0,0,0-.32.025.613.613,0,0,0-.288.117.649.649,0,0,0-.2.285,1.463,1.463,0,0,0-.079.523v1.252h.707v.434h-.707v5.8H107.4v-5.8H106.7v-.412h.707v-1.4a1.64,1.64,0,0,1,.1-.618.925.925,0,0,1,.276-.387.951.951,0,0,1,.4-.2,2.123,2.123,0,0,1,.485-.054,4.022,4.022,0,0,1,.463.019q.152.019.295.029v.425a.9.9,0,0,0-.222-.032Z" transform="translate(0.003 0)" fill="#231f20"/>
  <path id="Path_115" data-name="Path 115" d="M112.006,119.389c-.1,0-.222-.006-.352-.006a2.214,2.214,0,0,0-.32.025.613.613,0,0,0-.288.117.649.649,0,0,0-.2.285,1.4,1.4,0,0,0-.079.523v1.252h.707v.434h-.707v5.8h-.548v-5.8h-.707v-.412h.707v-1.4a1.64,1.64,0,0,1,.1-.618.925.925,0,0,1,.276-.387.951.951,0,0,1,.4-.2,2.123,2.123,0,0,1,.485-.054,4.022,4.022,0,0,1,.463.019q.152.019.295.029v.425a.9.9,0,0,0-.222-.032Z" transform="translate(0.003 0)" fill="#231f20"/>
  <path id="Path_116" data-name="Path 116" d="M116.743,127.342a2.97,2.97,0,0,1-1.927.618,3.168,3.168,0,0,1-1.3-.253,2.834,2.834,0,0,1-1.553-1.683,3.556,3.556,0,0,1-.2-1.21,4.24,4.24,0,0,1,.2-1.3,3.1,3.1,0,0,1,.593-1.071,2.8,2.8,0,0,1,1-.732,3.362,3.362,0,0,1,1.4-.272,3.168,3.168,0,0,1,.979.146,2.825,2.825,0,0,1,.818.409,2.179,2.179,0,0,1,.589.659,2.382,2.382,0,0,1,.295.875l-5.292,1.787a3.065,3.065,0,0,0,.253.859,2.4,2.4,0,0,0,.5.7,2.223,2.223,0,0,0,.745.475,2.626,2.626,0,0,0,.985.174,2.689,2.689,0,0,0,.856-.133,2.265,2.265,0,0,0,.707-.38,1.92,1.92,0,0,0,.491-.593,2.064,2.064,0,0,0,.222-.779h.536a2.438,2.438,0,0,1-.881,1.7Zm-.444-5.083a2.3,2.3,0,0,0-1.34-.387,2.722,2.722,0,0,0-1.188.238,2.358,2.358,0,0,0-.818.631,2.8,2.8,0,0,0-.485.906,3.588,3.588,0,0,0-.162,1.084v.206l4.731-1.6a1.84,1.84,0,0,0-.738-1.077Z" transform="translate(0.003 0)" fill="#231f20"/>
  <path id="Path_117" data-name="Path 117" d="M123.327,127.342a2.97,2.97,0,0,1-1.927.618,3.168,3.168,0,0,1-1.3-.253,2.834,2.834,0,0,1-1.553-1.683,3.556,3.556,0,0,1-.2-1.21,4.24,4.24,0,0,1,.2-1.3,3.032,3.032,0,0,1,.6-1.071,2.8,2.8,0,0,1,1-.732,3.383,3.383,0,0,1,1.4-.272,3.168,3.168,0,0,1,.979.146,2.825,2.825,0,0,1,.818.409,2.222,2.222,0,0,1,.589.659,2.382,2.382,0,0,1,.295.875l-5.292,1.787a3.065,3.065,0,0,0,.253.859,2.4,2.4,0,0,0,.5.7,2.223,2.223,0,0,0,.745.475,2.626,2.626,0,0,0,.985.174,2.689,2.689,0,0,0,.856-.133,2.265,2.265,0,0,0,.707-.38,1.92,1.92,0,0,0,.491-.593,2.064,2.064,0,0,0,.222-.779h.536a2.438,2.438,0,0,1-.881,1.7Zm-.444-5.083a2.3,2.3,0,0,0-1.34-.387,2.722,2.722,0,0,0-1.188.238,2.358,2.358,0,0,0-.818.631,2.8,2.8,0,0,0-.485.906,3.588,3.588,0,0,0-.162,1.084v.206l4.731-1.6a1.84,1.84,0,0,0-.738-1.077Z" transform="translate(0.003 0)" fill="#231f20"/>
  <path id="Path_118" data-name="Path 118" d="M133.641,126.17a1.435,1.435,0,0,1-.234.833,1.832,1.832,0,0,1-.6.551,2.722,2.722,0,0,1-.824.307,4.475,4.475,0,0,1-.916.1,3.4,3.4,0,0,1-2.05-.545,1.983,1.983,0,0,1-.745-1.717h.536a1.651,1.651,0,0,0,.6,1.41,2.707,2.707,0,0,0,1.673.453,3.5,3.5,0,0,0,.684-.073,2.246,2.246,0,0,0,.653-.231,1.425,1.425,0,0,0,.485-.412,1,1,0,0,0,.19-.618.975.975,0,0,0-.184-.612,1.38,1.38,0,0,0-.485-.387,3.025,3.025,0,0,0-.707-.241c-.269-.06-.548-.124-.837-.187-.3-.063-.6-.13-.881-.2a3.188,3.188,0,0,1-.757-.285,1.431,1.431,0,0,1-.529-.478,1.392,1.392,0,0,1-.2-.779,1.289,1.289,0,0,1,.146-.593,1.551,1.551,0,0,1,.444-.52,2.321,2.321,0,0,1,.748-.368,3.66,3.66,0,0,1,1.065-.139,4.316,4.316,0,0,1,1.027.114,2.31,2.31,0,0,1,.8.352,1.655,1.655,0,0,1,.523.618,1.994,1.994,0,0,1,.19.9h-.523a1.384,1.384,0,0,0-.561-1.229,2.51,2.51,0,0,0-1.439-.38,2.675,2.675,0,0,0-1.014.158,1.577,1.577,0,0,0-.561.364.967.967,0,0,0-.241.412,1.346,1.346,0,0,0-.051.292.9.9,0,0,0,.253.672,1.823,1.823,0,0,0,.634.393,4.827,4.827,0,0,0,.811.225c.288.054.548.108.783.165.253.063.5.133.757.206a2.705,2.705,0,0,1,.672.292,1.452,1.452,0,0,1,.475.466,1.324,1.324,0,0,1,.184.719Z" transform="translate(0.003 0)" fill="#231f20"/>
  <path id="Path_119" data-name="Path 119" d="M139.234,127.814v-4a1.963,1.963,0,0,0-.5-1.407,1.93,1.93,0,0,0-1.47-.532,2.289,2.289,0,0,0-.985.2,2.122,2.122,0,0,0-.713.539,2.246,2.246,0,0,0-.431.776,2.956,2.956,0,0,0-.143.922v3.5h-.548v-8.711h.548v3.92a2.137,2.137,0,0,1,.9-1.185,2.784,2.784,0,0,1,1.5-.4,2.465,2.465,0,0,1,1.752.6,2.115,2.115,0,0,1,.64,1.626v4.151h-.548Z" transform="translate(0.003 0)" fill="#231f20"/>
  <path id="Path_120" data-name="Path 120" d="M146.994,124.706a3.72,3.72,0,0,1-.2,1.229,3.133,3.133,0,0,1-.6,1.039,2.785,2.785,0,0,1-.973.719,3.182,3.182,0,0,1-1.34.266,3.252,3.252,0,0,1-1.353-.266,2.824,2.824,0,0,1-.973-.719,3.064,3.064,0,0,1-.589-1.039,3.945,3.945,0,0,1,0-2.459,3.012,3.012,0,0,1,.589-1.039,2.912,2.912,0,0,1,.973-.726,3.163,3.163,0,0,1,1.353-.272,3.114,3.114,0,0,1,1.34.272,2.881,2.881,0,0,1,.973.726,3.133,3.133,0,0,1,.6,1.039A3.789,3.789,0,0,1,146.994,124.706Zm-.548-.006a3.332,3.332,0,0,0-.165-1.049,2.685,2.685,0,0,0-.485-.9,2.393,2.393,0,0,0-.8-.634,2.435,2.435,0,0,0-1.119-.241,2.481,2.481,0,0,0-1.125.241,2.418,2.418,0,0,0-.8.634,2.664,2.664,0,0,0-.475.9,3.631,3.631,0,0,0,0,2.1,2.724,2.724,0,0,0,.475.906,2.311,2.311,0,0,0,.8.634,2.8,2.8,0,0,0,2.243,0,2.377,2.377,0,0,0,.8-.634,2.867,2.867,0,0,0,.485-.906A3.446,3.446,0,0,0,146.446,124.7Z" transform="translate(0.003 0)" fill="#231f20"/>
  <path id="Path_121" data-name="Path 121" d="M154,124.817a3.517,3.517,0,0,1-.209,1.223,2.952,2.952,0,0,1-.6,1,2.771,2.771,0,0,1-.966.678,3.244,3.244,0,0,1-1.293.247,3.1,3.1,0,0,1-1.439-.32,2.284,2.284,0,0,1-.954-.913v3.581h-.548v-8.723h.548v.966a2.155,2.155,0,0,1,.947-.827,3.052,3.052,0,0,1,1.312-.285,3.362,3.362,0,0,1,1.4.272,2.91,2.91,0,0,1,1,.732,2.971,2.971,0,0,1,.6,1.071,4.255,4.255,0,0,1,.2,1.3Zm-.548-.006a4.121,4.121,0,0,0-.136-1.046,2.709,2.709,0,0,0-.456-.947,2.308,2.308,0,0,0-.843-.681,2.889,2.889,0,0,0-1.28-.26,2.5,2.5,0,0,0-.783.127,2.579,2.579,0,0,0-.707.349,1.914,1.914,0,0,0-.51.526,1.177,1.177,0,0,0-.2.653v2.113a1.629,1.629,0,0,0,.19.786,1.832,1.832,0,0,0,.516.6,2.384,2.384,0,0,0,.745.374,2.964,2.964,0,0,0,.875.127,2.709,2.709,0,0,0,1.125-.219,2.329,2.329,0,0,0,.811-.593,2.522,2.522,0,0,0,.491-.868,3.32,3.32,0,0,0,.165-1.039Z" transform="translate(0.003 0)" fill="#231f20"/>
</svg>
